<mxfile host="Electron" modified="2024-04-09T12:03:01.504Z" agent="Mozilla/5.0 (Windows NT 10.0; Win64; x64) AppleWebKit/537.36 (KHTML, like Gecko) draw.io/24.1.0 Chrome/120.0.6099.109 Electron/28.1.0 Safari/537.36" etag="lzNyaHqiY-06Z9QeeguQ" version="24.1.0" type="device">
  <diagram name="Page-1" id="822b0af5-4adb-64df-f703-e8dfc1f81529">
    <mxGraphModel dx="2469" dy="1474" grid="1" gridSize="10" guides="1" tooltips="1" connect="1" arrows="1" fold="1" page="1" pageScale="1" pageWidth="1100" pageHeight="850" background="none" math="0" shadow="0">
      <root>
        <mxCell id="0" />
        <mxCell id="1" parent="0" />
        <mxCell id="IghIgPW5xBb_f46h4M5v-3" value="" style="rounded=1;whiteSpace=wrap;html=1;" parent="1" vertex="1">
          <mxGeometry x="350" y="300" width="1357.31" height="824" as="geometry" />
        </mxCell>
        <mxCell id="IghIgPW5xBb_f46h4M5v-1" value="" style="verticalLabelPosition=bottom;sketch=0;aspect=fixed;html=1;verticalAlign=top;strokeColor=none;align=center;outlineConnect=0;shape=mxgraph.citrix.command_center;noLabel=0;" parent="1" vertex="1">
          <mxGeometry x="240" y="200" width="122.69" height="156" as="geometry" />
        </mxCell>
        <mxCell id="IghIgPW5xBb_f46h4M5v-5" value="" style="endArrow=none;html=1;rounded=0;entryX=0.5;entryY=0;entryDx=0;entryDy=0;exitX=0.5;exitY=1;exitDx=0;exitDy=0;" parent="1" source="IghIgPW5xBb_f46h4M5v-3" target="IghIgPW5xBb_f46h4M5v-3" edge="1">
          <mxGeometry width="50" height="50" relative="1" as="geometry">
            <mxPoint x="500" y="650" as="sourcePoint" />
            <mxPoint x="550" y="600" as="targetPoint" />
          </mxGeometry>
        </mxCell>
        <mxCell id="IghIgPW5xBb_f46h4M5v-6" value="Python" style="text;html=1;align=center;verticalAlign=middle;whiteSpace=wrap;rounded=0;fontSize=60;" parent="1" vertex="1">
          <mxGeometry x="550" y="356" width="200" height="44" as="geometry" />
        </mxCell>
        <mxCell id="IghIgPW5xBb_f46h4M5v-7" value="Unity" style="text;html=1;align=center;verticalAlign=middle;whiteSpace=wrap;rounded=0;fontSize=60;" parent="1" vertex="1">
          <mxGeometry x="1250" y="356" width="200" height="44" as="geometry" />
        </mxCell>
        <mxCell id="IghIgPW5xBb_f46h4M5v-10" value="importcv2" style="rounded=0;whiteSpace=wrap;html=1;fontSize=22;" parent="1" vertex="1">
          <mxGeometry x="460" y="510" width="120" height="50" as="geometry" />
        </mxCell>
        <mxCell id="IghIgPW5xBb_f46h4M5v-11" value="SimpleApp" style="rounded=0;whiteSpace=wrap;html=1;fontSize=22;" parent="1" vertex="1">
          <mxGeometry x="690" y="670" width="120" height="60" as="geometry" />
        </mxCell>
        <mxCell id="IghIgPW5xBb_f46h4M5v-12" value="Live_Colibration" style="rounded=0;whiteSpace=wrap;html=1;fontSize=22;" parent="1" vertex="1">
          <mxGeometry x="780" y="510" width="170" height="60" as="geometry" />
        </mxCell>
        <mxCell id="IghIgPW5xBb_f46h4M5v-16" value="" style="endArrow=classic;html=1;rounded=0;exitX=0.5;exitY=1;exitDx=0;exitDy=0;entryX=0.5;entryY=0;entryDx=0;entryDy=0;fontSize=15;" parent="1" source="IghIgPW5xBb_f46h4M5v-10" target="IghIgPW5xBb_f46h4M5v-11" edge="1">
          <mxGeometry width="50" height="50" relative="1" as="geometry">
            <mxPoint x="860" y="780" as="sourcePoint" />
            <mxPoint x="910" y="730" as="targetPoint" />
          </mxGeometry>
        </mxCell>
        <mxCell id="IghIgPW5xBb_f46h4M5v-17" value="Коардинаты из Реал" style="edgeLabel;html=1;align=center;verticalAlign=middle;resizable=0;points=[];fontSize=14;" parent="IghIgPW5xBb_f46h4M5v-16" vertex="1" connectable="0">
          <mxGeometry x="-0.3108" y="3" relative="1" as="geometry">
            <mxPoint as="offset" />
          </mxGeometry>
        </mxCell>
        <mxCell id="IghIgPW5xBb_f46h4M5v-18" value="" style="endArrow=classic;html=1;rounded=0;exitX=1;exitY=0.5;exitDx=0;exitDy=0;entryX=0;entryY=0.5;entryDx=0;entryDy=0;" parent="1" source="IghIgPW5xBb_f46h4M5v-11" target="IghIgPW5xBb_f46h4M5v-39" edge="1">
          <mxGeometry width="50" height="50" relative="1" as="geometry">
            <mxPoint x="560" y="580" as="sourcePoint" />
            <mxPoint x="1020" y="790" as="targetPoint" />
          </mxGeometry>
        </mxCell>
        <mxCell id="IghIgPW5xBb_f46h4M5v-19" value="&lt;font style=&quot;font-size: 14px;&quot;&gt;Коардинаты из Реал&lt;/font&gt;" style="edgeLabel;html=1;align=center;verticalAlign=middle;resizable=0;points=[];fontSize=14;" parent="IghIgPW5xBb_f46h4M5v-18" vertex="1" connectable="0">
          <mxGeometry x="-0.0797" y="1" relative="1" as="geometry">
            <mxPoint x="-1" as="offset" />
          </mxGeometry>
        </mxCell>
        <mxCell id="IghIgPW5xBb_f46h4M5v-21" value="" style="endArrow=classic;startArrow=classic;html=1;rounded=0;exitX=1;exitY=0.5;exitDx=0;exitDy=0;entryX=0;entryY=0.5;entryDx=0;entryDy=0;" parent="1" source="IghIgPW5xBb_f46h4M5v-10" target="IghIgPW5xBb_f46h4M5v-12" edge="1">
          <mxGeometry width="50" height="50" relative="1" as="geometry">
            <mxPoint x="650" y="560" as="sourcePoint" />
            <mxPoint x="700" y="510" as="targetPoint" />
          </mxGeometry>
        </mxCell>
        <mxCell id="IghIgPW5xBb_f46h4M5v-22" value="Матрица камеры" style="edgeLabel;html=1;align=center;verticalAlign=middle;resizable=0;points=[];fontSize=14;" parent="IghIgPW5xBb_f46h4M5v-21" vertex="1" connectable="0">
          <mxGeometry x="-0.0841" y="-1" relative="1" as="geometry">
            <mxPoint as="offset" />
          </mxGeometry>
        </mxCell>
        <mxCell id="IghIgPW5xBb_f46h4M5v-23" value="" style="shape=flexArrow;endArrow=classic;html=1;rounded=0;entryX=0;entryY=0.5;entryDx=0;entryDy=0;exitX=1;exitY=0.5;exitDx=0;exitDy=0;" parent="1" source="IghIgPW5xBb_f46h4M5v-30" target="IghIgPW5xBb_f46h4M5v-10" edge="1">
          <mxGeometry width="50" height="50" relative="1" as="geometry">
            <mxPoint x="80" y="530" as="sourcePoint" />
            <mxPoint x="430" y="610" as="targetPoint" />
          </mxGeometry>
        </mxCell>
        <mxCell id="IghIgPW5xBb_f46h4M5v-24" value="Изображение с камер" style="edgeLabel;html=1;align=center;verticalAlign=middle;resizable=0;points=[];fontSize=14;" parent="IghIgPW5xBb_f46h4M5v-23" vertex="1" connectable="0">
          <mxGeometry x="0.0106" y="-1" relative="1" as="geometry">
            <mxPoint as="offset" />
          </mxGeometry>
        </mxCell>
        <mxCell id="IghIgPW5xBb_f46h4M5v-25" value="" style="rounded=1;whiteSpace=wrap;html=1;" parent="1" vertex="1">
          <mxGeometry x="620" y="1265" width="380" height="190" as="geometry" />
        </mxCell>
        <mxCell id="IghIgPW5xBb_f46h4M5v-26" value="&lt;font style=&quot;font-size: 60px;&quot;&gt;Дрон&lt;/font&gt;" style="text;strokeColor=none;fillColor=none;html=1;fontSize=60;fontStyle=0;verticalAlign=middle;align=center;" parent="1" vertex="1">
          <mxGeometry x="750" y="1340" width="100" height="40" as="geometry" />
        </mxCell>
        <mxCell id="IghIgPW5xBb_f46h4M5v-29" value="" style="curved=1;endArrow=classic;html=1;rounded=0;exitX=0;exitY=0.5;exitDx=0;exitDy=0;entryX=0.473;entryY=1.03;entryDx=0;entryDy=0;entryPerimeter=0;" parent="1" source="IghIgPW5xBb_f46h4M5v-25" target="IghIgPW5xBb_f46h4M5v-30" edge="1">
          <mxGeometry width="50" height="50" relative="1" as="geometry">
            <mxPoint x="390" y="1130" as="sourcePoint" />
            <mxPoint x="80" y="530" as="targetPoint" />
            <Array as="points">
              <mxPoint x="210" y="1380" />
              <mxPoint x="130" y="1020" />
            </Array>
          </mxGeometry>
        </mxCell>
        <mxCell id="IghIgPW5xBb_f46h4M5v-38" value="3 ИК светодиода" style="edgeLabel;html=1;align=center;verticalAlign=middle;resizable=0;points=[];fontSize=14;" parent="IghIgPW5xBb_f46h4M5v-29" vertex="1" connectable="0">
          <mxGeometry x="-0.6278" y="-14" relative="1" as="geometry">
            <mxPoint x="-1" as="offset" />
          </mxGeometry>
        </mxCell>
        <mxCell id="IghIgPW5xBb_f46h4M5v-30" value="Камера" style="rounded=1;whiteSpace=wrap;html=1;fontSize=60;" parent="1" vertex="1">
          <mxGeometry x="10" y="480" width="220" height="110" as="geometry" />
        </mxCell>
        <mxCell id="IghIgPW5xBb_f46h4M5v-31" value="Ардуинка" style="rounded=1;whiteSpace=wrap;html=1;fontSize=30;" parent="1" vertex="1">
          <mxGeometry x="1410" y="1170" width="160" height="70" as="geometry" />
        </mxCell>
        <mxCell id="IghIgPW5xBb_f46h4M5v-33" value="Аппа" style="rounded=1;whiteSpace=wrap;html=1;fontSize=30;" parent="1" vertex="1">
          <mxGeometry x="1410" y="1300" width="160" height="60" as="geometry" />
        </mxCell>
        <mxCell id="IghIgPW5xBb_f46h4M5v-34" value="" style="endArrow=classic;html=1;rounded=0;exitX=0.5;exitY=1;exitDx=0;exitDy=0;entryX=0.5;entryY=0;entryDx=0;entryDy=0;" parent="1" source="IghIgPW5xBb_f46h4M5v-31" target="IghIgPW5xBb_f46h4M5v-33" edge="1">
          <mxGeometry width="50" height="50" relative="1" as="geometry">
            <mxPoint x="1230" y="1220" as="sourcePoint" />
            <mxPoint x="1280" y="1170" as="targetPoint" />
          </mxGeometry>
        </mxCell>
        <mxCell id="IghIgPW5xBb_f46h4M5v-35" value="PPM" style="edgeLabel;html=1;align=center;verticalAlign=middle;resizable=0;points=[];fontSize=14;" parent="IghIgPW5xBb_f46h4M5v-34" vertex="1" connectable="0">
          <mxGeometry x="0.1281" y="-1" relative="1" as="geometry">
            <mxPoint as="offset" />
          </mxGeometry>
        </mxCell>
        <mxCell id="IghIgPW5xBb_f46h4M5v-36" value="" style="curved=1;endArrow=classic;html=1;rounded=0;exitX=0.5;exitY=1;exitDx=0;exitDy=0;entryX=1;entryY=0.5;entryDx=0;entryDy=0;" parent="1" source="IghIgPW5xBb_f46h4M5v-33" target="IghIgPW5xBb_f46h4M5v-25" edge="1">
          <mxGeometry width="50" height="50" relative="1" as="geometry">
            <mxPoint x="1240" y="1170" as="sourcePoint" />
            <mxPoint x="1290" y="1120" as="targetPoint" />
            <Array as="points">
              <mxPoint x="1380" y="1450" />
              <mxPoint x="1210" y="1440" />
            </Array>
          </mxGeometry>
        </mxCell>
        <mxCell id="IghIgPW5xBb_f46h4M5v-37" value="ELRS" style="edgeLabel;html=1;align=center;verticalAlign=middle;resizable=0;points=[];fontSize=14;" parent="IghIgPW5xBb_f46h4M5v-36" vertex="1" connectable="0">
          <mxGeometry x="-0.2305" y="-2" relative="1" as="geometry">
            <mxPoint as="offset" />
          </mxGeometry>
        </mxCell>
        <mxCell id="IghIgPW5xBb_f46h4M5v-39" value="Real2Sim" style="rounded=0;whiteSpace=wrap;html=1;fontSize=22;" parent="1" vertex="1">
          <mxGeometry x="1080" y="520" width="120" height="60" as="geometry" />
        </mxCell>
        <mxCell id="IghIgPW5xBb_f46h4M5v-40" value="Симулятор" style="rounded=0;whiteSpace=wrap;html=1;fontSize=22;" parent="1" vertex="1">
          <mxGeometry x="1240" y="690" width="180" height="160" as="geometry" />
        </mxCell>
        <mxCell id="IghIgPW5xBb_f46h4M5v-43" value="" style="endArrow=classic;html=1;rounded=0;exitX=1;exitY=0.5;exitDx=0;exitDy=0;entryX=0;entryY=0.5;entryDx=0;entryDy=0;" parent="1" source="IghIgPW5xBb_f46h4M5v-39" target="IghIgPW5xBb_f46h4M5v-40" edge="1">
          <mxGeometry width="50" height="50" relative="1" as="geometry">
            <mxPoint x="1000" y="620" as="sourcePoint" />
            <mxPoint x="1050" y="570" as="targetPoint" />
          </mxGeometry>
        </mxCell>
        <mxCell id="IghIgPW5xBb_f46h4M5v-44" value="Коррекция накопившихся ошибок" style="edgeLabel;html=1;align=center;verticalAlign=middle;resizable=0;points=[];fontSize=14;" parent="IghIgPW5xBb_f46h4M5v-43" vertex="1" connectable="0">
          <mxGeometry x="-0.013" y="1" relative="1" as="geometry">
            <mxPoint as="offset" />
          </mxGeometry>
        </mxCell>
        <mxCell id="IghIgPW5xBb_f46h4M5v-45" value="MoveDrone" style="rounded=0;whiteSpace=wrap;html=1;fontSize=22;" parent="1" vertex="1">
          <mxGeometry x="1530" y="640" width="130" height="60" as="geometry" />
        </mxCell>
        <mxCell id="IghIgPW5xBb_f46h4M5v-46" value="RotDrone" style="rounded=0;whiteSpace=wrap;html=1;fontSize=22;" parent="1" vertex="1">
          <mxGeometry x="1530" y="740" width="130" height="60" as="geometry" />
        </mxCell>
        <mxCell id="IghIgPW5xBb_f46h4M5v-49" value="" style="endArrow=classic;startArrow=classic;html=1;rounded=0;entryX=0;entryY=0.5;entryDx=0;entryDy=0;exitX=1;exitY=0.5;exitDx=0;exitDy=0;" parent="1" source="IghIgPW5xBb_f46h4M5v-40" target="IghIgPW5xBb_f46h4M5v-46" edge="1">
          <mxGeometry width="50" height="50" relative="1" as="geometry">
            <mxPoint x="1180" y="690" as="sourcePoint" />
            <mxPoint x="1230" y="640" as="targetPoint" />
          </mxGeometry>
        </mxCell>
        <mxCell id="IghIgPW5xBb_f46h4M5v-52" value="PID Rot" style="edgeLabel;html=1;align=center;verticalAlign=middle;resizable=0;points=[];fontSize=14;" parent="IghIgPW5xBb_f46h4M5v-49" vertex="1" connectable="0">
          <mxGeometry x="-0.1347" relative="1" as="geometry">
            <mxPoint as="offset" />
          </mxGeometry>
        </mxCell>
        <mxCell id="IghIgPW5xBb_f46h4M5v-50" value="" style="endArrow=classic;startArrow=classic;html=1;rounded=0;entryX=0;entryY=0.5;entryDx=0;entryDy=0;exitX=1;exitY=0.25;exitDx=0;exitDy=0;" parent="1" source="IghIgPW5xBb_f46h4M5v-40" target="IghIgPW5xBb_f46h4M5v-45" edge="1">
          <mxGeometry width="50" height="50" relative="1" as="geometry">
            <mxPoint x="1180" y="690" as="sourcePoint" />
            <mxPoint x="1230" y="640" as="targetPoint" />
          </mxGeometry>
        </mxCell>
        <mxCell id="IghIgPW5xBb_f46h4M5v-51" value="Pid Thust" style="edgeLabel;html=1;align=center;verticalAlign=middle;resizable=0;points=[];fontSize=14;" parent="IghIgPW5xBb_f46h4M5v-50" vertex="1" connectable="0">
          <mxGeometry x="-0.0461" y="-4" relative="1" as="geometry">
            <mxPoint as="offset" />
          </mxGeometry>
        </mxCell>
        <mxCell id="IghIgPW5xBb_f46h4M5v-53" value="" style="endArrow=classic;html=1;rounded=0;exitX=0.75;exitY=1;exitDx=0;exitDy=0;" parent="1" source="IghIgPW5xBb_f46h4M5v-40" target="IghIgPW5xBb_f46h4M5v-54" edge="1">
          <mxGeometry width="50" height="50" relative="1" as="geometry">
            <mxPoint x="1180" y="970" as="sourcePoint" />
            <mxPoint x="1230" y="920" as="targetPoint" />
          </mxGeometry>
        </mxCell>
        <mxCell id="IghIgPW5xBb_f46h4M5v-56" value="&lt;font style=&quot;font-size: 14px;&quot;&gt;Углы наклоона&lt;/font&gt;" style="edgeLabel;html=1;align=center;verticalAlign=middle;resizable=0;points=[];" parent="IghIgPW5xBb_f46h4M5v-53" vertex="1" connectable="0">
          <mxGeometry x="-0.0465" y="-2" relative="1" as="geometry">
            <mxPoint as="offset" />
          </mxGeometry>
        </mxCell>
        <mxCell id="IghIgPW5xBb_f46h4M5v-54" value="ХЗ" style="rounded=0;whiteSpace=wrap;html=1;" parent="1" vertex="1">
          <mxGeometry x="1320" y="970" width="120" height="60" as="geometry" />
        </mxCell>
        <mxCell id="IghIgPW5xBb_f46h4M5v-55" value="" style="endArrow=classic;html=1;rounded=0;exitX=0.5;exitY=1;exitDx=0;exitDy=0;entryX=0.5;entryY=0;entryDx=0;entryDy=0;" parent="1" source="IghIgPW5xBb_f46h4M5v-54" target="IghIgPW5xBb_f46h4M5v-31" edge="1">
          <mxGeometry width="50" height="50" relative="1" as="geometry">
            <mxPoint x="1180" y="970" as="sourcePoint" />
            <mxPoint x="1230" y="920" as="targetPoint" />
          </mxGeometry>
        </mxCell>
        <mxCell id="IghIgPW5xBb_f46h4M5v-57" value="Данные для стиков" style="edgeLabel;html=1;align=center;verticalAlign=middle;resizable=0;points=[];fontSize=14;" parent="IghIgPW5xBb_f46h4M5v-55" vertex="1" connectable="0">
          <mxGeometry x="-0.0621" y="2" relative="1" as="geometry">
            <mxPoint y="1" as="offset" />
          </mxGeometry>
        </mxCell>
        <mxCell id="GxAcurlvM0gB_ggXitUK-1" value="" style="shape=mxgraph.arrows2.wedgeArrowDashed2;html=1;bendable=0;startWidth=50;stepSize=15;rounded=0;entryX=0;entryY=0.5;entryDx=0;entryDy=0;exitX=1;exitY=0.5;exitDx=0;exitDy=0;" edge="1" parent="1" source="IghIgPW5xBb_f46h4M5v-25" target="IghIgPW5xBb_f46h4M5v-33">
          <mxGeometry width="100" height="100" relative="1" as="geometry">
            <mxPoint x="1160" y="1420" as="sourcePoint" />
            <mxPoint x="1260" y="1320" as="targetPoint" />
          </mxGeometry>
        </mxCell>
      </root>
    </mxGraphModel>
  </diagram>
</mxfile>
